<!-- Frame Variation 1: Bubbly Corners -->
<svg viewBox="0 0 400 300" xmlns="http://www.w3.org/2000/svg" preserveAspectRatio="none">
  <defs>
    <filter id="rough1" x="-20%" y="-20%" width="140%" height="140%">
      <feTurbulence baseFrequency="0.05" numOctaves="2" result="noise"/>
      <feDisplacementMap in="SourceGraphic" in2="noise" scale="1.5"/>
    </filter>
  </defs>
  
  <path d="
    M 20,15 
    Q 12,8 8,15 Q 5,25 15,28 Q 25,25 35,20
    Q 45,12 55,18 Q 65,8 75,15 Q 85,12 95,18
    Q 120,15 150,20 Q 180,15 210,20 Q 240,15 270,20
    Q 300,18 310,12 Q 320,8 330,15 Q 340,12 350,18
    Q 360,8 370,15 Q 380,25 385,15 Q 392,8 388,20
    
    L 385,30 Q 390,40 385,50 Q 390,70 385,90
    Q 390,120 385,150 Q 390,180 385,210
    Q 390,240 385,260 Q 390,270 385,285
    Q 392,292 388,280 Q 380,275 370,285
    Q 360,292 350,282 Q 340,288 330,285
    Q 320,292 310,288 Q 300,282 270,280
    Q 240,285 210,280 Q 180,285 150,280
    Q 120,285 95,282 Q 85,288 75,285
    Q 65,292 55,282 Q 45,288 35,280
    Q 25,275 15,272 Q 5,275 8,285
    Q 12,292 20,285

    L 15,270 Q 10,260 15,250 Q 10,230 15,210
    Q 10,180 15,150 Q 10,120 15,90
    Q 10,70 15,50 Q 10,40 15,30
    Z
    M 35,35 L 365,35 L 365,265 L 35,265 Z
  "
  fill="white"
  fill-rule="evenodd" 
  stroke="black"
  stroke-width="2"
  filter="url(#rough1)"/>

  <g stroke="black" stroke-width="1" fill="none" opacity="0.6">
    <circle cx="20" cy="20" r="8" filter="url(#rough1)"/>
    <circle cx="380" cy="20" r="8" filter="url(#rough1)"/>
    <circle cx="20" cy="280" r="8" filter="url(#rough1)"/>
    <circle cx="380" cy="280" r="8" filter="url(#rough1)"/>
    <path d="M 60,25 Q 65,20 70,25 M 90,20 Q 95,25 100,20" filter="url(#rough1)"/>
  </g>
</svg> 