<!-- Frame Variation 6: Torn Paper Edge -->
<svg viewBox="0 0 400 300" xmlns="http://www.w3.org/2000/svg" preserveAspectRatio="none">
  <defs>
    <filter id="rough6" x="-20%" y="-20%" width="140%" height="140%">
      <feTurbulence baseFrequency="0.08" numOctaves="4" result="noise"/>
      <feDisplacementMap in="SourceGraphic" in2="noise" scale="3"/>
    </filter>
  </defs>

  <path d="
    M 25,20 L 20,15 L 18,25 L 12,18 L 8,28 L 15,35
    L 10,40 L 20,45 L 15,50 L 25,48 L 35,35
    L 50,30 L 65,35 L 80,30 L 95,35 L 120,30
    L 160,35 L 200,30 L 240,35 L 280,30 L 305,35
    L 320,30 L 335,35 L 350,30 L 365,35 L 375,48
    L 385,50 L 380,45 L 390,40 L 385,35 L 392,28
    L 388,18 L 382,25 L 380,15 L 375,20 L 370,35
    L 375,50 L 370,70 L 375,95 L 370,125 L 375,155
    L 370,185 L 375,215 L 370,245 L 375,265 L 370,280
    L 375,285 L 380,275 L 382,285 L 388,278 L 392,288
    L 385,295 L 390,300 L 380,295 L 375,280 L 365,285
    L 350,280 L 335,285 L 320,280 L 305,285 L 280,280
    L 240,285 L 200,280 L 160,285 L 120,280 L 95,285
    L 80,280 L 65,285 L 50,280 L 35,285 L 25,272
    L 15,270 L 20,275 L 10,280 L 15,285 L 8,292
    L 12,302 L 18,295 L 20,305 L 25,300 L 30,285
    L 25,270 L 30,245 L 25,215 L 30,185 L 25,155
    L 30,125 L 25,95 L 30,70 L 25,50 L 30,35 L 25,20
    Z
    M 40,45 L 360,45 L 360,255 L 40,255 Z
  "
  fill="white"
  fill-rule="evenodd"
  stroke="black"
  stroke-width="2"
  filter="url(#rough6)"/>
</svg> 