<!-- Frame Variation 7: Simple Rounded -->
<svg viewBox="0 0 400 300" xmlns="http://www.w3.org/2000/svg" preserveAspectRatio="none">
  <defs>
    <filter id="rough7" x="-20%" y="-20%" width="140%" height="140%">
      <feTurbulence baseFrequency="0.03" numOctaves="2" result="noise"/>
      <feDisplacementMap in="SourceGraphic" in2="noise" scale="1"/>
    </filter>
  </defs>

  <path d="
    M 50,25 Q 30,10 10,30 Q 20,50 40,40
    Q 60,30 80,35 Q 100,30 120,35 Q 140,30 160,35
    Q 180,30 200,35 Q 220,30 240,35 Q 260,30 280,35
    Q 300,30 320,35 Q 340,30 360,35 Q 370,40 380,30
    Q 390,10 370,20 Q 380,40 370,60 Q 380,90 370,120
    Q 380,150 370,180 Q 380,210 370,240 Q 380,270 370,285
    Q 390,290 370,280 Q 380,260 370,240 Q 360,250 340,260
    Q 320,265 280,260 Q 240,265 200,260 Q 160,265 120,260
    Q 80,265 40,260 Q 20,250 10,240 Q 5,260 15,270
    Q 25,280 40,270 Q 30,250 40,240 Q 30,210 40,180
    Q 30,150 40,120 Q 30,90 40,60 Q 30,40 40,30 L 50,25
    Z
    M 50,45 L 350,45 L 350,255 L 50,255 Z
  "
  fill="white"
  fill-rule="evenodd"
  stroke="black"
  stroke-width="2.5"
  filter="url(#rough7)"/>

  <g stroke="black" stroke-width="1" fill="none" opacity="0.4">
    <circle cx="30" cy="30" r="12" filter="url(#rough7)"/>
    <circle cx="370" cy="30" r="12" filter="url(#rough7)"/>
    <circle cx="30" cy="270" r="12" filter="url(#rough7)"/>
    <circle cx="370" cy="270" r="12" filter="url(#rough7)"/>
  </g>
</svg> 