<!-- Frame Variation 8: Angular Geometric -->
<svg viewBox="0 0 400 300" xmlns="http://www.w3.org/2000/svg" preserveAspectRatio="none">
  <defs>
    <filter id="rough8" x="-20%" y="-20%" width="140%" height="140%">
      <feTurbulence baseFrequency="0.06" numOctaves="3" result="noise"/>
      <feDisplacementMap in="SourceGraphic" in2="noise" scale="1.8"/>
    </filter>
  </defs>

  <path d="
    M 30,25 L 25,10 L 15,15 L 5,25 L 15,35 L 5,45
    L 15,55 L 25,50 L 35,40 L 50,35 L 70,40
    L 90,35 L 120,40 L 160,35 L 200,40 L 240,35
    L 280,40 L 320,35 L 350,40 L 365,50 L 375,55
    L 385,45 L 395,35 L 385,25 L 395,15 L 385,10
    L 375,25 L 370,40 L 375,55 L 370,75 L 375,100
    L 370,130 L 375,160 L 370,190 L 375,220 L 370,245
    L 375,260 L 370,275 L 385,290 L 395,285 L 385,275
    L 395,265 L 385,255 L 375,245 L 365,250 L 350,260
    L 320,265 L 280,260 L 240,265 L 200,260 L 160,265
    L 120,260 L 90,265 L 70,260 L 50,265 L 35,260
    L 25,250 L 15,245 L 5,255 L 15,265 L 5,275
    L 15,285 L 25,290 L 15,275 L 25,260 L 30,245
    L 25,220 L 30,190 L 25,160 L 30,130 L 25,100
    L 30,75 L 25,55 L 30,40 L 25,25
    Z
    M 45,50 L 355,50 L 355,250 L 45,250 Z
  "
  fill="white"
  fill-rule="evenodd"
  stroke="black"
  stroke-width="2"
  filter="url(#rough8)"/>

  <g stroke="black" stroke-width="1" fill="none" opacity="0.5">
    <polygon points="20,20 30,15 25,30" filter="url(#rough8)"/>
    <polygon points="380,20 370,15 375,30" filter="url(#rough8)"/>
    <polygon points="20,280 30,285 25,270" filter="url(#rough8)"/>
    <polygon points="380,280 370,285 375,270" filter="url(#rough8)"/>
  </g>
</svg> 