<!-- Frame Variation 2: Spiky Corners -->
<svg viewBox="0 0 400 300" xmlns="http://www.w3.org/2000/svg" preserveAspectRatio="none">
  <defs>
    <filter id="rough2" x="-20%" y="-20%" width="140%" height="140%">
      <feTurbulence baseFrequency="0.06" numOctaves="3" result="noise"/>        
      <feDisplacementMap in="SourceGraphic" in2="noise" scale="2"/>
    </filter>
  </defs>

  <path d="
    M 25,20 L 15,5 L 8,18 L 18,30 L 5,35 L 20,40
    L 30,25 L 40,15 L 55,25 L 70,15 L 85,25
    L 120,20 L 180,25 L 240,20 L 300,25
    L 315,15 L 330,25 L 345,15 L 360,25
    L 370,40 L 385,35 L 382,18 L 395,5 L 385,20
    L 390,30 L 385,45 L 390,70 L 385,95
    L 390,130 L 385,165 L 390,200 L 385,235
    L 390,260 L 385,280 L 395,295 L 382,282
    L 385,265 L 370,260 L 360,275 L 345,285
    L 330,275 L 315,285 L 300,275 L 240,280
    L 180,275 L 120,280 L 85,275 L 70,285
    L 55,275 L 40,285 L 30,275 L 20,260
    L 5,265 L 18,270 L 8,282 L 15,295 L 25,280
    L 20,265 L 15,235 L 20,200 L 15,165
    L 20,130 L 15,95 L 20,70 L 15,45 L 20,30
    Z
    M 40,40 L 360,40 L 360,260 L 40,260 Z
  "
  fill="white"
  fill-rule="evenodd"
  stroke="black"
  stroke-width="2"
  filter="url(#rough2)"/>

  <g stroke="black" stroke-width="1" fill="none" opacity="0.5">
    <path d="M 25,275 L 20,285 L 15,275" filter="url(#rough2)"/>
  </g>
</svg> 